<svg xmlns="http://www.w3.org/2000/svg" width="100" height="99.998" viewBox="0 0 100 99.998">
  <path id="联合_1" data-name="联合 1" d="M1.738,79.42a30.769,30.769,0,0,1,9.8-34.209V19.23A19.23,19.23,0,0,1,50,19.23v25.98A30.769,30.769,0,1,1,1.738,79.42ZM22.613,11.073a11.108,11.108,0,0,0-3.381,8.157V48.907l-2.885,2.308A23.092,23.092,0,0,0,7.694,69.229a22.243,22.243,0,0,0,6.758,16.319A22.243,22.243,0,0,0,30.77,92.306a22.244,22.244,0,0,0,16.319-6.758,22.244,22.244,0,0,0,6.758-16.319,23.091,23.091,0,0,0-8.654-18.015l-2.885-2.308V19.23a11.108,11.108,0,0,0-3.381-8.157A11.108,11.108,0,0,0,30.77,7.692,11.108,11.108,0,0,0,22.613,11.073ZM11.945,73.157A19.23,19.23,0,0,1,23.078,51.6V30.769H38.462V51.6A19.23,19.23,0,1,1,11.945,73.157ZM100,53.845h0Zm-38.461,0V46.153H100v7.692Zm0-15.384V30.769H84.615v7.692ZM100,23.076h0Zm-38.461,0V15.384H100v7.692Zm0-15.384V0H84.615V7.692Z" transform="translate(0)" fill="#fff"/>
</svg>
