<svg xmlns="http://www.w3.org/2000/svg" width="100" height="100" viewBox="0 0 100 100">
  <path id="gaojing" d="M98.218,89.782a1.7,1.7,0,0,1,1.7,1.7V98.3a1.7,1.7,0,0,1-1.7,1.7H6.327a1.7,1.7,0,0,1-1.7-1.7V91.486a1.705,1.705,0,0,1,1.7-1.7H18.236V52.318a34.034,34.034,0,1,1,68.068,0V89.782H98.218ZM62.831,51.2H52.545l1.927-13.9A.841.841,0,0,0,54,36.436a.791.791,0,0,0-.936.209L36.545,56.518a.859.859,0,0,0-.109.891.809.809,0,0,0,.727.482H47.45L45.523,71.8a.841.841,0,0,0,.473.859.791.791,0,0,0,.936-.209L63.445,52.573a.859.859,0,0,0,.109-.891.809.809,0,0,0-.727-.482ZM45.455,13.636h9.091V0H45.455ZM17.036,9.427l8.327-4.8L31.773,15.7l-8.318,4.791ZM0,29.877l4.809-8.3,11.109,6.386-4.809,8.3Zm81.818-1.218L94.5,22.727l5.5,7.7L87.314,36.364ZM68.182,17.232,74.114,4.545l7.7,5.5L75.886,22.727Z" fill="#fff"/>
</svg>
