<svg xmlns="http://www.w3.org/2000/svg" width="100" height="88.468" viewBox="0 0 100 88.468">
  <path id="减去_1" data-name="减去 1" d="M88.459,88.468H11.541A11.462,11.462,0,0,1,5.1,86.487a11.705,11.705,0,0,1-3.122-3.124A11.594,11.594,0,0,1,.911,81.4,11.42,11.42,0,0,1,0,76.927V23.082a11.462,11.462,0,0,1,1.981-6.441A11.7,11.7,0,0,1,5.1,13.52a11.6,11.6,0,0,1,1.96-1.068,11.42,11.42,0,0,1,4.477-.911H88.459A11.471,11.471,0,0,1,94.9,13.519a11.693,11.693,0,0,1,3.122,3.121A11.579,11.579,0,0,1,99.089,18.6,11.411,11.411,0,0,1,100,23.073V76.927a11.462,11.462,0,0,1-1.981,6.441A11.7,11.7,0,0,1,94.9,86.489a11.594,11.594,0,0,1-1.96,1.068,11.42,11.42,0,0,1-4.477.911ZM53.853,46.147v7.688H65.386V65.376h7.688V53.844H84.615V46.156H73.074V34.615H65.386V46.147H53.853Zm-38.459,0v7.688H46.156V46.147H15.395ZM84.606,7.688H69.22a3.835,3.835,0,0,1-3.537-5.34A3.877,3.877,0,0,1,67.73.3,3.794,3.794,0,0,1,69.22,0H84.606a3.842,3.842,0,0,1,2.718,6.562,3.832,3.832,0,0,1-2.718,1.126Zm-53.826,0H15.395A3.842,3.842,0,0,1,11.55,3.844,3.835,3.835,0,0,1,15.386,0H30.78A3.842,3.842,0,0,1,33.5,6.562,3.832,3.832,0,0,1,30.78,7.688Z" transform="translate(0)" fill="#fff"/>
</svg>
